<svg width="18" height="18" viewBox="0 0 18 18" fill="none" xmlns="http://www.w3.org/2000/svg">
<path d="M13.7167 17.8917C13.275 17.8917 12.7083 17.75 12 17.3333L9.50833 15.8583C9.25 15.7083 8.75 15.7083 8.5 15.8583L6 17.3333C4.525 18.2083 3.65833 17.8583 3.26666 17.575C2.88333 17.2917 2.28333 16.5667 2.675 14.9L3.26666 12.3417C3.33333 12.075 3.2 11.6167 3 11.4167L0.93333 9.35001C-0.100004 8.31667 -0.0166702 7.43334 0.124996 7.00001C0.266663 6.56667 0.716663 5.80001 2.15 5.55834L4.80833 5.11667C5.05833 5.07501 5.41666 4.80834 5.525 4.58334L7 1.64167C7.66666 0.300006 8.54166 0.100006 9 0.100006C9.45833 0.100006 10.3333 0.300006 11 1.64167L12.4667 4.57501C12.5833 4.80001 12.9417 5.06667 13.1917 5.10834L15.85 5.55001C17.2917 5.79167 17.7417 6.55834 17.875 6.99167C18.0083 7.42501 18.0917 8.30834 17.0667 9.34167L15 11.4167C14.8 11.6167 14.675 12.0667 14.7333 12.3417L15.325 14.9C15.7083 16.5667 15.1167 17.2917 14.7333 17.575C14.525 17.725 14.1917 17.8917 13.7167 17.8917ZM9 14.4917C9.40833 14.4917 9.81666 14.5917 10.1417 14.7833L12.6333 16.2583C13.3583 16.6917 13.8167 16.6917 13.9917 16.5667C14.1667 16.4417 14.2917 16 14.1083 15.1833L13.5167 12.625C13.3583 11.9333 13.6167 11.0417 14.1167 10.5333L16.1833 8.46667C16.5917 8.05834 16.775 7.65834 16.6917 7.38334C16.6 7.10834 16.2167 6.88334 15.65 6.79167L12.9917 6.35001C12.35 6.24167 11.65 5.72501 11.3583 5.14167L9.89166 2.20834C9.625 1.67501 9.29166 1.35834 9 1.35834C8.70833 1.35834 8.375 1.67501 8.11666 2.20834L6.64166 5.14167C6.35 5.72501 5.65 6.24167 5.00833 6.35001L2.35833 6.79167C1.79166 6.88334 1.40833 7.10834 1.31666 7.38334C1.225 7.65834 1.41666 8.06667 1.825 8.46667L3.89166 10.5333C4.39166 11.0333 4.65 11.9333 4.49166 12.625L3.9 15.1833C3.70833 16.0083 3.84166 16.4417 4.01666 16.5667C4.19166 16.6917 4.64166 16.6833 5.375 16.2583L7.86666 14.7833C8.18333 14.5917 8.59166 14.4917 9 14.4917Z" fill="#1C1C1E"/>
</svg>
