<svg width="24" height="24" viewBox="0 0 24 24" fill="none" xmlns="http://www.w3.org/2000/svg">
<path fill-rule="evenodd" clip-rule="evenodd" d="M6.48311 2.81529C2.81152 3.99738 1.17386 8.00569 2.40482 11.8295C3.02947 13.6301 4.04534 15.2485 5.38004 16.5762C7.21101 18.3545 9.22254 19.9194 11.3849 21.2491L11.6304 21.3961C11.8656 21.5369 12.1598 21.5344 12.3926 21.3897L12.6218 21.2473C14.7812 19.9194 16.7927 18.3545 18.6174 16.5824C19.9584 15.2485 20.9743 13.6301 21.5937 11.8452C22.8291 8.00801 21.1847 3.9978 17.512 2.81535L17.2463 2.73623C15.5624 2.27309 13.773 2.5013 12.2645 3.35535L11.9964 3.51429L11.733 3.35623C10.1419 2.45344 8.2404 2.25003 6.48311 2.81529ZM11.3747 4.85431L11.5714 4.99542C11.8308 5.18115 12.1807 5.17746 12.436 4.98629C13.7661 3.99061 15.4873 3.70086 17.0641 4.20673C19.9097 5.12288 21.2047 8.281 20.2065 11.382C19.665 12.9418 18.7687 14.3696 17.5917 15.5405L17.0637 16.0422C15.6411 17.3642 14.1026 18.561 12.4692 19.6156L12.0013 19.9099L12.1441 19.9999C10.0805 18.7309 8.15379 17.2319 6.40586 15.5344C5.23509 14.3696 4.33881 12.9418 3.79211 11.3664C2.79812 8.27805 4.0875 5.12216 6.93158 4.2065C8.43335 3.72343 10.0706 3.96293 11.3747 4.85431ZM15.8703 6.48372C15.4855 6.36091 15.074 6.57301 14.9511 6.95747C14.8281 7.34192 15.0404 7.75314 15.4252 7.87595C16.1815 8.11733 16.7206 8.79801 16.7882 9.60094C16.822 10.0031 17.1757 10.3017 17.5782 10.2679C17.9807 10.2341 18.2796 9.88068 18.2458 9.47851C18.1288 8.08857 17.1917 6.90549 15.8703 6.48372Z" fill="black"/>
</svg>
