<svg width="22" height="12" viewBox="0 0 22 12" fill="none" xmlns="http://www.w3.org/2000/svg">
<path fill-rule="evenodd" clip-rule="evenodd" d="M1 3.846V8.99995C1 10.1045 1.89543 10.9999 3 10.9999H15.7689C16.5866 11 17.4011 10.8997 18.1943 10.7014L19.1063 10.4734C20.2192 10.1952 21 9.19519 21 8.04801V7.89551C21 6.70381 20.1588 5.67777 18.9903 5.44406L16.7759 5.00118C16.2636 4.89872 15.7763 4.69688 15.3416 4.40706L10.4829 1.16795C10.1843 0.968892 9.80191 0.94509 9.48094 1.10558L8.29814 1.69698C8.10461 1.79374 7.94769 1.95066 7.85093 2.14419L7.27639 3.29326C7.107 3.63204 6.76074 3.84605 6.38197 3.84605H4L3.41421 3.26026C3.149 2.99504 2.78928 2.84604 2.41421 2.84605H2C1.44773 2.84605 1.00003 3.29373 1 3.846Z" stroke="#1C1C1E" stroke-width="1.5" stroke-linecap="round" stroke-linejoin="round"/>
</svg>
